name rise34.3697peak60.0498fall86.3158.mot
datacolumns 19
datarows 29
range 13.45994800000000 13.50661300000000
endheader
time	ground_force1_vx	ground_force1_vy	ground_force1_vz	ground_force1_px	ground_force1_py	ground_force1_pz	ground_force2_vx	ground_force2_vy	ground_force2_vz	ground_force2_px	ground_force2_py	ground_force2_pz	ground_torque1_x	ground_torque1_y	ground_torque1_z	ground_torque2_x	ground_torque2_y	ground_torque2_z	
13.45994800000000	-5.56504700000000	40.67480500000000	-9.51579500000000	0.36151700000000	0.00000000000000	0.10021500000000	-38.16494500000000	787.70475399999998	-54.35812100000000	0.23988400000000	0.00000000000000	-0.07729700000000	0.00000000000000	-8.12810700000000	0.00000000000000	0.00000000000000	-29.26405100000000	0.00000000000000	
13.46161300000000	-6.03759600000000	47.69435200000000	-10.67293400000000	0.36680900000000	0.00000000000000	0.10121000000000	-38.51240700000000	785.01053500000000	-54.00717900000000	0.23883900000000	0.00000000000000	-0.07725300000000	0.00000000000000	-9.20720600000000	0.00000000000000	0.00000000000000	-29.06075600000000	0.00000000000000	
13.46328500000000	-6.38519900000000	54.80671400000000	-11.71457000000000	0.37179900000000	0.00000000000000	0.10209800000000	-38.87609600000000	782.19969300000002	-53.63612200000000	0.23779700000000	0.00000000000000	-0.07720500000000	0.00000000000000	-10.20744000000000	0.00000000000000	0.00000000000000	-28.85433600000000	0.00000000000000	
13.46494500000000	-6.59176900000000	61.92030800000000	-12.61553100000000	0.37652600000000	0.00000000000000	0.10289600000000	-39.25622700000000	779.27068399999996	-53.24476000000000	0.23675800000000	0.00000000000000	-0.07715300000000	0.00000000000000	-11.10580500000000	0.00000000000000	0.00000000000000	-28.64489400000000	0.00000000000000	
13.46661500000000	-6.64785000000000	68.96563999999999	-13.35935900000000	0.38102100000000	0.00000000000000	0.10361800000000	-39.65292700000000	776.22190100000000	-52.83291400000000	0.23572400000000	0.00000000000000	-0.07709800000000	0.00000000000000	-11.88637300000000	0.00000000000000	0.00000000000000	-28.43251800000000	0.00000000000000	
13.46828200000000	-6.55048900000000	75.89746900000000	-13.93838100000000	0.38531200000000	0.00000000000000	0.10427500000000	-40.06623100000000	773.05168300000003	-52.40042100000000	0.23469500000000	0.00000000000000	-0.07703800000000	0.00000000000000	-12.54056500000000	0.00000000000000	0.00000000000000	-28.21728300000000	0.00000000000000	
13.46994700000000	-6.30260200000000	82.69462100000000	-14.35306600000000	0.38941800000000	0.00000000000000	0.10487700000000	-40.49608000000000	769.75831700000003	-51.94713100000000	0.23367200000000	0.00000000000000	-0.07697400000000	0.00000000000000	-13.06676800000000	0.00000000000000	0.00000000000000	-27.99925100000000	0.00000000000000	
13.47161100000000	-5.91196800000000	89.35785300000001	-14.61081800000000	0.39336000000000	0.00000000000000	0.10543100000000	-40.94231500000000	766.34004100000004	-51.47291300000000	0.23265600000000	0.00000000000000	-0.07690500000000	0.00000000000000	-13.46945200000000	0.00000000000000	0.00000000000000	-27.77847200000000	0.00000000000000	
13.47328400000000	-5.39001400000000	95.90627600000001	-14.72441000000000	0.39715100000000	0.00000000000000	0.10594300000000	-41.40467900000000	762.79504799999995	-50.97765800000000	0.23164900000000	0.00000000000000	-0.07683200000000	0.00000000000000	-13.75792700000000	0.00000000000000	0.00000000000000	-27.55498100000000	0.00000000000000	
13.47495200000000	-4.75049900000000	102.37289800000001	-14.71025500000000	0.40080600000000	0.00000000000000	0.10641900000000	-41.88281100000000	759.12149299999999	-50.46127700000000	0.23065000000000	0.00000000000000	-0.07675500000000	0.00000000000000	-13.94492300000000	0.00000000000000	0.00000000000000	-27.32880100000000	0.00000000000000	
13.47661700000000	-4.00825600000000	108.79980100000000	-14.58667500000000	0.40433500000000	0.00000000000000	0.10686200000000	-42.37624500000000	755.31749700000000	-49.92370800000000	0.22966200000000	0.00000000000000	-0.07667200000000	0.00000000000000	-14.04512500000000	0.00000000000000	0.00000000000000	-27.09994100000000	0.00000000000000	
13.47828200000000	-3.17805800000000	115.23340100000000	-14.37231700000000	0.40774900000000	0.00000000000000	0.10727600000000	-42.88441100000000	751.38115700000003	-49.36491700000000	0.22868500000000	0.00000000000000	-0.07658500000000	0.00000000000000	-14.07379500000000	0.00000000000000	0.00000000000000	-26.86840000000000	0.00000000000000	
13.47994900000000	-2.27368800000000	121.72017400000000	-14.08481900000000	0.41105700000000	0.00000000000000	0.10766400000000	-43.40663200000000	747.31055000000003	-48.78489900000000	0.22772100000000	0.00000000000000	-0.07649300000000	0.00000000000000	-14.04558500000000	0.00000000000000	0.00000000000000	-26.63416100000000	0.00000000000000	
13.48161200000000	-1.30725600000000	128.30308299999999	-13.73977600000000	0.41426600000000	0.00000000000000	0.10802900000000	-43.94212200000000	743.10374100000001	-48.18368200000000	0.22677000000000	0.00000000000000	-0.07639600000000	0.00000000000000	-13.97359500000000	0.00000000000000	0.00000000000000	-26.39719800000000	0.00000000000000	
13.48328700000000	-0.28875600000000	135.01887500000001	-13.35005300000000	0.41738200000000	0.00000000000000	0.10837300000000	-44.48998800000000	738.75879499999996	-47.56133100000000	0.22583300000000	0.00000000000000	-0.07629300000000	0.00000000000000	-13.86870600000000	0.00000000000000	0.00000000000000	-26.15747200000000	0.00000000000000	
13.48494900000000	0.77412200000000	141.89628999999999	-12.92541100000000	0.42041200000000	0.00000000000000	0.10869800000000	-45.04923200000000	734.27378099999999	-46.91794700000000	0.22491200000000	0.00000000000000	-0.07618500000000	0.00000000000000	-13.73920300000000	0.00000000000000	0.00000000000000	-25.91493300000000	0.00000000000000	
13.48661100000000	1.87598000000000	148.95515599999999	-12.47244800000000	0.42336000000000	0.00000000000000	0.10900500000000	-45.61874700000000	729.64678700000002	-46.25367100000000	0.22400900000000	0.00000000000000	-0.07607200000000	0.00000000000000	-13.59065600000000	0.00000000000000	0.00000000000000	-25.66952000000000	0.00000000000000	
13.48828400000000	3.01352300000000	156.20628700000000	-11.99477600000000	0.42623200000000	0.00000000000000	0.10929700000000	-46.19732300000000	724.87593200000003	-45.56868500000000	0.22312300000000	0.00000000000000	-0.07595300000000	0.00000000000000	-13.42602600000000	0.00000000000000	0.00000000000000	-25.42116200000000	0.00000000000000	
13.48994800000000	4.18523800000000	163.65203099999999	-11.49339700000000	0.42903100000000	0.00000000000000	0.10957300000000	-46.78364400000000	719.95937000000004	-44.86321700000000	0.22225700000000	0.00000000000000	-0.07582800000000	0.00000000000000	-13.24595100000000	0.00000000000000	0.00000000000000	-25.16977900000000	0.00000000000000	
13.49161900000000	5.39100200000000	171.28731199999999	-10.96720200000000	0.43176100000000	0.00000000000000	0.10983600000000	-47.37629600000000	714.89531399999998	-44.13754000000000	0.22141200000000	0.00000000000000	-0.07569700000000	0.00000000000000	-13.04915100000000	0.00000000000000	0.00000000000000	-24.91528100000000	0.00000000000000	
13.49328300000000	6.63164600000000	179.10100399999999	-10.41353700000000	0.43442500000000	0.00000000000000	0.11008700000000	-47.97376200000000	709.68204000000003	-43.39197300000000	0.22058800000000	0.00000000000000	-0.07556100000000	0.00000000000000	-12.83291200000000	0.00000000000000	0.00000000000000	-24.65756900000000	0.00000000000000	
13.49494500000000	7.90853100000000	187.07746800000001	-9.82878600000000	0.43702600000000	0.00000000000000	0.11032500000000	-48.57443500000000	704.31790799999999	-42.62688600000000	0.21978800000000	0.00000000000000	-0.07541800000000	0.00000000000000	-12.59358500000000	0.00000000000000	0.00000000000000	-24.39653700000000	0.00000000000000	
13.49661700000000	9.22315200000000	195.19809900000001	-9.20891500000000	0.43956500000000	0.00000000000000	0.11055200000000	-49.17661100000000	698.80137400000001	-41.84269700000000	0.21901300000000	0.00000000000000	-0.07527000000000	0.00000000000000	-12.32707100000000	0.00000000000000	0.00000000000000	-24.13207300000000	0.00000000000000	
13.49828100000000	10.57680200000000	203.44279100000000	-8.54995000000000	0.44204600000000	0.00000000000000	0.11076900000000	-49.77850200000000	693.13100699999995	-41.03987600000000	0.21826300000000	0.00000000000000	-0.07511500000000	0.00000000000000	-12.02925300000000	0.00000000000000	0.00000000000000	-23.86405500000000	0.00000000000000	
13.49995200000000	11.97030700000000	211.79120100000000	-7.84837200000000	0.44447000000000	0.00000000000000	0.11097600000000	-50.37823400000000	687.30550400000004	-40.21894500000000	0.21754000000000	0.00000000000000	-0.07495400000000	0.00000000000000	-11.69635200000000	0.00000000000000	0.00000000000000	-23.59235800000000	0.00000000000000	
13.50162000000000	13.40384500000000	220.22378800000001	-7.10140200000000	0.44683800000000	0.00000000000000	0.11117300000000	-50.97385700000000	681.32370800000001	-39.38047600000000	0.21684500000000	0.00000000000000	-0.07478600000000	0.00000000000000	-11.32520400000000	0.00000000000000	0.00000000000000	-23.31685100000000	0.00000000000000	
13.50328500000000	14.87683000000000	228.72256500000000	-6.30718600000000	0.44915100000000	0.00000000000000	0.11136100000000	-51.56334700000000	675.18462499999998	-38.52509500000000	0.21618000000000	0.00000000000000	-0.07461100000000	0.00000000000000	-10.91343800000000	0.00000000000000	0.00000000000000	-23.03739700000000	0.00000000000000	
13.50494900000000	16.38788100000000	237.27159300000000	-5.46488600000000	0.45141100000000	0.00000000000000	0.11154000000000	-52.14461300000000	668.88743399999998	-37.65348000000000	0.21554600000000	0.00000000000000	-0.07443000000000	0.00000000000000	-10.45957600000000	0.00000000000000	0.00000000000000	-22.75386000000000	0.00000000000000	
13.50661300000000	17.93483900000000	245.85721899999999	-4.57468100000000	0.45361900000000	0.00000000000000	0.11171100000000	-52.71550600000000	662.43150900000001	-36.76636100000000	0.21494400000000	0.00000000000000	-0.07424300000000	0.00000000000000	-9.96304700000000	0.00000000000000	0.00000000000000	-22.46609700000000	0.00000000000000	
